<svg xmlns="http://www.w3.org/2000/svg" width="50" height="50" viewBox="0 0 50 50">
  <defs>
    <style>
      .cls-1 {
        fill: #fff;
        fill-rule: evenodd;
      }
    </style>
  </defs>
  <path id="Фигура_16" data-name="Фигура 16" class="cls-1" d="M1207,78a25,25,0,1,1-17.68,7.322A24.915,24.915,0,0,1,1207,78h0Zm16.31,8.707A23.078,23.078,0,1,0,1230.05,103a23.03,23.03,0,0,0-6.74-16.293h0Zm-14.4,11.185V95.841a1.073,1.073,0,0,1,1.12-1.218h2.87V90.249h-3.95c-4.39,0-5.37,3.239-5.37,5.343v2.3h-2.55V103h2.58v12.763h5.11V103h3.78l0.16-2.007,0.31-3.1h-4.06Z" transform="translate(-1182 -78)"/>
</svg>
