<svg xmlns="http://www.w3.org/2000/svg" width="29.906" height="30.47" viewBox="0 0 29.906 30.47">
  <defs>
    <style>
      .cls-1 {
        fill: #959595;
        fill-rule: evenodd;
      }
    </style>
  </defs>
  <path id="Фигура_11" data-name="Фигура 11" class="cls-1" d="M171.555,5693.19a14.986,14.986,0,0,0-5.7-3.63,8.83,8.83,0,0,0-3.884-15.99,8.811,8.811,0,0,0-5.934,15.99,14.99,14.99,0,0,0-5.7,3.63,15.2,15.2,0,0,0-4.344,9.49,1.173,1.173,0,1,0,2.338.19,12.648,12.648,0,0,1,25.234,0,1.173,1.173,0,1,0,2.338-.19A15.192,15.192,0,0,0,171.555,5693.19Zm-10.612-4.46a6.421,6.421,0,1,1,6.331-6.42A6.384,6.384,0,0,1,160.943,5688.73Z" transform="translate(-146 -5673.5)"/>
</svg>
