<svg xmlns="http://www.w3.org/2000/svg" width="29.875" height="31" viewBox="0 0 29.875 31">
  <defs>
    <style>
      .cls-1 {
        fill: #959595;
        fill-rule: evenodd;
      }
    </style>
  </defs>
  <path id="Фигура_12" data-name="Фигура 12" class="cls-1" d="M586.91,5677.99a13.58,13.58,0,0,0-9.714-4.06,1.1,1.1,0,0,0,0,2.2,11.407,11.407,0,0,1,8.174,3.42,11.632,11.632,0,0,1,3.387,8.25,1.089,1.089,0,1,0,2.177,0A13.843,13.843,0,0,0,586.91,5677.99Zm-4.478,9.81a1.089,1.089,0,1,0,2.177,0,7.451,7.451,0,0,0-7.413-7.48,1.1,1.1,0,0,0,0,2.19A5.267,5.267,0,0,1,582.432,5687.8Zm-2.409,5.6a3.293,3.293,0,0,0-2.909,1.76,1.11,1.11,0,0,0,.283,1.53,1.087,1.087,0,0,0,1.514-.29c0.478-.71.7-0.82,0.99-0.8,0.942,0.11,4.653,2.85,5.024,3.71a1.138,1.138,0,0,1-.011.8,3.807,3.807,0,0,1-1.865,2.38,3.475,3.475,0,0,1-2.8-.1,30.788,30.788,0,0,1-10.092-6.63s0,0,0-.01a30.99,30.99,0,0,1-6.558-10.17,3.567,3.567,0,0,1-.094-2.83,3.776,3.776,0,0,1,2.348-1.88,1.137,1.137,0,0,1,.792-0.01c0.854,0.38,3.573,4.12,3.682,5.06,0.016,0.31-.1.53-0.795,1.01a1.112,1.112,0,0,0-.285,1.53,1.087,1.087,0,0,0,1.514.29,3.319,3.319,0,0,0,1.74-2.94c-0.094-1.76-3.477-6.41-5.093-7.01a3.278,3.278,0,0,0-2.249-.01,5.884,5.884,0,0,0-3.634,3.05,5.708,5.708,0,0,0,.058,4.57,33.24,33.24,0,0,0,7.038,10.9,0.04,0.04,0,0,0,.022.02,32.987,32.987,0,0,0,10.788,7.1,6.417,6.417,0,0,0,2.43.51,4.847,4.847,0,0,0,2.1-.46,5.884,5.884,0,0,0,3.022-3.67,3.339,3.339,0,0,0-.011-2.26C586.371,5696.91,581.765,5693.5,580.023,5693.4Z" transform="translate(-561.063 -5673.94)"/>
</svg>
