<svg xmlns="http://www.w3.org/2000/svg" width="50" height="50" viewBox="0 0 50 50">
  <defs>
    <style>
      .cls-1 {
        fill: #fff;
        fill-rule: evenodd;
      }
    </style>
  </defs>
  <path id="Фигура_17" data-name="Фигура 17" class="cls-1" d="M1280,78a24.994,24.994,0,1,1-17.68,7.321A24.976,24.976,0,0,1,1280,78h0Zm16.29,8.705a23.021,23.021,0,1,0,6.76,16.3,22.941,22.941,0,0,0-6.76-16.3h0Zm-3.78,10.974a6,6,0,0,0-1.02-2.643,3.654,3.654,0,0,0-2.55-1.134c-3.57-.263-8.93-0.263-8.93-0.263h-0.02s-5.35,0-8.92.263a3.641,3.641,0,0,0-2.56,1.134,6,6,0,0,0-1.02,2.643,39.713,39.713,0,0,0-.27,4.29V104a39.061,39.061,0,0,0,.27,4.291,6.081,6.081,0,0,0,1.02,2.656,4.172,4.172,0,0,0,2.82,1.135c2.04,0.208,8.68.277,8.68,0.277s5.36-.027,8.93-0.277a3.59,3.59,0,0,0,2.55-1.135,6.081,6.081,0,0,0,1.02-2.656,42.137,42.137,0,0,0,.25-4.291v-2.034a42.841,42.841,0,0,0-.25-4.29h0Zm-8.25,5.038-6.9,3.721V98.963l3.12,1.7Z" transform="translate(-1255 -78)"/>
</svg>
